<svg xmlns="http://www.w3.org/2000/svg" viewBox="0 0 30 23.6"><defs><style>.cls-1{fill:#fff;}</style></defs><g id="Слой_2" ><g id="Слой_1-2" ><path class="cls-1" d="M18.16,16.84v6.73H13.65V17c-.35-3.12,4.77-3.43,4.51-.17"/><path class="cls-1" d="M25.22,16.84v6.73H20.73c.21-1.28-.53-7.52.58-8.42,1.31-1.19,4.18-.69,3.91,1.69"/><path class="cls-1" d="M30,10.66V22.28c0,1.17-1.23,1.4-2.16,1.29-.32-2.41,1-8.76-1.28-10.5-1.74-1.33-4.94-1.19-6.27.7-1.26-2-5.23-2.13-6.61-.13a1.3,1.3,0,0,0-2.2-.91c-.73-.14-.24,10.44-.37,10.84-.93.11-2.18-.11-2.16-1.29V1.3A1.3,1.3,0,0,1,10.71.1C11.14.71,30.93,9.44,30,10.66"/><path class="cls-1" d="M.25,22.29c.14-.55-.37-9.46.38-9.56a1.3,1.3,0,0,1,2.2.91v8.65a1.29,1.29,0,0,1-2.58,0M0,9.55c-.21-2.12,3.29-2.1,3.08,0,.16,2-3.24,2-3.08,0"/><path class="cls-1" d="M4.58,22.29V5A1.29,1.29,0,1,1,7.16,5V22.29a1.29,1.29,0,0,1-2.58,0"/></g></g></svg>